<svg xmlns="http://www.w3.org/2000/svg" width="72" height="50" viewBox="0 0 72 50">
  <g fill="none">
    <path id="youtube-icon" fill="#ccc" d="M69.941176,7.82352936 C69.1176466,4.76470585 66.7058819,2.35294116 63.6470584,1.52941175 C58.0588231,0 35.7058821,0 35.7058821,0 C35.7058821,0 13.3529411,0 7.76470583,1.47058822 C4.76470585,2.29411763 2.29411763,4.76470585 1.47058822,7.82352936 C0,13.4117646 0,25 0,25 C0,25 0,36.6470586 1.47058822,42.1764703 C2.29411763,45.2352938 4.70588232,47.6470585 7.76470583,48.4705879 C13.4117646,50 35.7058821,50 35.7058821,50 C35.7058821,50 58.0588231,50 63.6470584,48.5294114 C66.7058819,47.705882 69.1176466,45.2941173 69.941176,42.2352938 C71.4120643,36.6470586 71.4120643,25.0588234 71.4120643,25.0588234 C71.4120643,25.0588234 71.4705877,13.4117646 69.941176,7.82352936 Z"/>
    <polygon fill="#FFF" points="47.176 25 28.588 14.294 28.588 35.706"/>
  </g>
</svg>
